<?xml version="1.0" encoding="utf-8"?>
<!-- Generator: Adobe Illustrator 12.0.0, SVG Export Plug-In . SVG Version: 6.00 Build 51448)  -->
<!DOCTYPE svg PUBLIC "-//W3C//DTD SVG 1.0//EN" "http://www.w3.org/TR/2001/REC-SVG-20010904/DTD/svg10.dtd" >
<svg  version="1.0" id="Layer_1" xmlns="http://www.w3.org/2000/svg" xmlns:xlink="http://www.w3.org/1999/xlink" width="914" height="860" viewBox="0 0 914 860"
	 overflow="visible" enable-background="new 0 0 914 860" xml:space="preserve">
<path opacity="0.75" fill="#BCBEC0" d="M693.065,807.819c0,20.642-141.084,37.358-315.168,37.358
	c-174.051,0-315.135-16.717-315.135-37.358c0-20.607,141.084-37.342,315.135-37.342
	C551.981,770.477,693.065,787.212,693.065,807.819z"/>
<path opacity="0.75" fill="#BCBEC0" d="M883.842,826.558c0,14.836-46.28,26.853-103.387,26.853
	c-57.094,0-103.375-12.017-103.375-26.853c0-14.813,46.281-26.842,103.375-26.842C837.562,799.716,883.842,811.745,883.842,826.558z
	"/>
<radialGradient id="XMLID_9_" cx="427.0098" cy="353.8481" r="288.5928" gradientUnits="userSpaceOnUse">
	<stop  offset="0.0056" style="stop-color:#7E7B59"/>
	<stop  offset="1" style="stop-color:#231F20"/>
</radialGradient>
<path fill="url(#XMLID_9_)" d="M709.789,299.441c-18.318-43.312-44.533-82.199-77.916-115.581
	c-33.381-33.382-72.269-59.597-115.58-77.916c-44.867-18.978-92.5-28.6-141.572-28.6c-49.072,0-96.704,9.623-141.572,28.6
	c-43.312,18.319-82.199,44.534-115.581,77.916c-17.852,17.853-33.652,37.28-47.293,58.116l91.542,48.088
	c8.454-11.893,17.933-23.102,28.394-33.562c23.98-23.981,51.892-42.803,82.958-55.943c32.136-13.592,66.304-20.484,101.553-20.484
	s69.416,6.892,101.552,20.484c31.066,13.14,58.978,31.962,82.958,55.942c23.981,23.981,42.803,51.892,55.942,82.958
	c13.592,32.136,20.484,66.304,20.484,101.553s-6.893,69.417-20.484,101.553c-13.14,31.066-31.961,58.977-55.942,82.957
	c-23.98,23.981-51.892,42.803-82.958,55.943c-32.137,13.592-66.303,20.484-101.552,20.484s-69.417-6.892-101.553-20.484
	c-31.066-13.14-58.978-31.962-82.958-55.943c-23.981-23.98-42.802-51.891-55.942-82.957
	c-13.592-32.137-20.484-66.304-20.484-101.553c0-14.89,1.234-29.585,3.68-44.018H13.683c-1.747,14.518-2.63,29.201-2.63,44.018
	c0,49.072,9.623,96.704,28.6,141.572c18.319,43.312,44.534,82.199,77.916,115.581s72.269,59.597,115.581,77.916
	c44.868,18.978,92.5,28.6,141.572,28.6c49.072,0,96.705-9.622,141.572-28.6c43.312-18.319,82.199-44.534,115.58-77.916
	c33.383-33.382,59.598-72.269,77.916-115.581c18.979-44.868,28.601-92.5,28.601-141.572S728.768,344.309,709.789,299.441z"/>
<radialGradient id="XMLID_10_" cx="811.9531" cy="662.252" r="157.4127" gradientUnits="userSpaceOnUse">
	<stop  offset="0" style="stop-color:#FFF200"/>
	<stop  offset="1" style="stop-color:#006E3A"/>
</radialGradient>
<path fill="url(#XMLID_10_)" stroke="#28903A" stroke-width="8.2614" d="M798.506,814.977
	c-63.949,9.658-116.758-34.31-126.699-100.139c-10.226-67.71,29.409-123.714,93.359-133.372
	c67.711-10.227,118.354,32.145,128.581,99.855c9.941,65.83-25.648,123.146-93.36,133.37L798.506,814.977z"/>
<polygon fill="#231F20" points="755.561,561.523 797.117,22.362 904.393,33.779 831.548,569.609 "/>
<path fill="#8CC63F" stroke="#006031" stroke-width="7.1918" d="M452.805,187.424c107.843,34.106,185.984,134.964,185.984,254.073
	c0,147.14-119.283,266.424-266.423,266.424c-147.147,0-266.424-119.285-266.424-266.424c0-123.326,83.768-227.069,197.513-257.424
	l1.512-5.823c-6.752-8.752-24.111-53.405-26.975-53.317c-30.864,0.988-56.669-23.232-57.65-54.096
	c-0.981-30.857,23.239-56.655,54.088-57.651c30.865-0.981,56.684,23.24,57.658,54.111c0.596,18.63-8.017,35.429-21.712,46.027
	c-1.992,1.534,14.945,48.768,16.798,59.358l9.726,4.725c11.609-1.548,23.443-2.34,35.466-2.34c16.267,0,32.202,1.454,47.669,4.252
	l10.207-4.252c1.075-10.533,14.596-58.973,12.531-60.413c-14.131-9.726-23.609-25.812-24.191-44.269
	c-0.974-30.864,23.246-56.676,54.111-57.65c30.85-0.981,56.668,23.239,57.643,54.088c0.974,30.872-23.246,56.677-54.096,57.657
	c-2.967,0.095-19.627,46.129-26.169,56.132L452.805,187.424z"/>
<radialGradient id="XMLID_11_" cx="313.8276" cy="50.7319" r="63.3455" gradientTransform="matrix(0.9995 -0.0318 0.0318 0.9995 -27.3758 11.6575)" gradientUnits="userSpaceOnUse">
	<stop  offset="0" style="stop-color:#FFF200"/>
	<stop  offset="1" style="stop-color:#006E3A"/>
</radialGradient>
<path opacity="0.5" fill="url(#XMLID_11_)" d="M323.19,65.547c0.829,25.95-19.539,47.663-45.504,48.484
	c-25.943,0.829-47.656-19.546-48.491-45.497c-0.822-25.95,19.554-47.67,45.504-48.491C300.664,19.214,322.37,39.596,323.19,65.547z"
	/>
<radialGradient id="XMLID_12_" cx="511.9922" cy="56.585" r="63.348" gradientTransform="matrix(0.9995 -0.0318 0.0318 0.9995 -27.3758 11.6575)" gradientUnits="userSpaceOnUse">
	<stop  offset="0" style="stop-color:#FFF200"/>
	<stop  offset="1" style="stop-color:#006E3A"/>
</radialGradient>
<path opacity="0.41" fill="url(#XMLID_12_)" d="M521.445,65.089c0.814,25.958-19.553,47.663-45.504,48.492
	c-25.965,0.829-47.656-19.546-48.499-45.497c-0.813-25.958,19.554-47.663,45.504-48.492
	C498.911,18.764,520.603,39.131,521.445,65.089z"/>
<radialGradient id="XMLID_13_" cx="438.2324" cy="363.0796" r="347.7349" gradientUnits="userSpaceOnUse">
	<stop  offset="0" style="stop-color:#FFF200"/>
	<stop  offset="1" style="stop-color:#006E3A"/>
</radialGradient>
<path fill="url(#XMLID_13_)" stroke="#28903A" stroke-width="7.1918" d="M629.506,441.429
	c0,142.545-115.563,258.108-258.107,258.108c-142.538,0-258.101-115.563-258.101-258.108c0-142.552,115.563-258.101,258.101-258.101
	C513.943,183.329,629.506,298.877,629.506,441.429z"/>
<radialGradient id="XMLID_14_" cx="448.3867" cy="349.8818" r="85.6962" gradientUnits="userSpaceOnUse">
	<stop  offset="0" style="stop-color:#565759"/>
	<stop  offset="1" style="stop-color:#231F20"/>
</radialGradient>
<path fill="url(#XMLID_14_)" d="M289.679,304.271c12.474,4.434,24.198,10.998,33.946,18.921c3.933,3.184,11.006,8.65,5.023,12.961
	c-12.096-8.927-26.917-14.458-42.495-14.415c-13.833,0.036-27.753,2.566-39.587,9.995c-11.55,7.24-20.251,19.241-33.263,24.191
	c-21.182,8.083-22.701-18.914-12.844-31.809C222.317,295.526,258.394,293.157,289.679,304.271z"/>
<radialGradient id="XMLID_15_" cx="448.3838" cy="349.8813" r="85.7031" gradientUnits="userSpaceOnUse">
	<stop  offset="0" style="stop-color:#565759"/>
	<stop  offset="1" style="stop-color:#231F20"/>
</radialGradient>
<path fill="url(#XMLID_15_)" d="M444.734,304.241c-8.84,3.86-36.781,18.398-37.711,30.581c-0.917,12.19,16.152,2.268,21.167-0.283
	c18.244-9.275,37.042-13.317,56.538-3.315c11.528,5.917,20.658,17.235,33.016,21.131c20.28,6.419,29.541-13.963,19.539-30.231
	c-8.112-13.193-32.216-19.125-46.318-21.829C475.41,297.307,459.477,297.772,444.734,304.241z"/>
<g>
	<radialGradient id="XMLID_16_" cx="427.0098" cy="353.8486" r="288.5928" gradientUnits="userSpaceOnUse">
		<stop  offset="0.0056" style="stop-color:#7E7B59"/>
		<stop  offset="1" style="stop-color:#231F20"/>
	</radialGradient>
	<rect x="59.232" y="396.996" fill="url(#XMLID_16_)" width="632.824" height="102.731"/>
</g>
<g>
	<g>
		<path fill="#92C83E" d="M494.415,184.931l28.362-48.083l9.577,5.649l-8.701,40.759c-0.821,3.791-1.454,6.614-1.901,8.472
			c1.577-1.427,3.945-3.493,7.104-6.199l31.246-26.664l8.56,5.049L540.3,211.997l-6.134-3.618l23.739-40.243l-37.71,32.001
			l-5.741-3.386l10.239-49.136l-24.146,40.933L494.415,184.931z"/>
		<path fill="#92C83E" d="M575.534,188.956l5.144,4.534l-20.404,23.146l34.664-10.576l5.543,4.887l-26.753,30.347l-5.144-4.534
			l20.278-23.003l-34.538,10.432l-5.543-4.887L575.534,188.956z"/>
		<path fill="#92C83E" d="M611.994,222.813l4.397,5.258l-12.91,10.799l12.192,14.575l12.91-10.799l4.398,5.258l-31.021,25.948
			l-4.397-5.258l13.758-11.508l-12.192-14.575l-13.758,11.508l-4.398-5.259L611.994,222.813z"/>
		<path fill="#92C83E" d="M650.539,273.543l15.82,28.816l-4.976,2.731l-6.27-11.419l-30.485,16.736l-3.28-5.977l30.484-16.736
			l-6.27-11.419L650.539,273.543z"/>
		<path fill="#92C83E" d="M647.452,349.854c-2.928-1.592-5.228-3.323-6.902-5.194c-1.675-1.871-2.997-4.063-3.966-6.573
			c-1.6-4.146-1.816-7.721-0.651-10.729c1.166-3.008,3.324-5.12,6.475-6.335c1.848-0.712,3.697-0.944,5.55-0.693
			s3.503,0.879,4.953,1.885c1.449,1.005,2.739,2.27,3.872,3.792c0.815,1.127,1.866,2.898,3.152,5.314
			c2.607,4.925,4.81,8.443,6.604,10.554c0.886-0.315,1.446-0.518,1.683-0.609c2.605-1.006,4.208-2.318,4.809-3.937
			c0.813-2.192,0.598-4.899-0.646-8.12c-1.16-3.008-2.545-5.025-4.15-6.051c-1.607-1.026-3.882-1.367-6.823-1.021l-1.561-6.582
			c2.896-0.464,5.418-0.362,7.567,0.305c2.148,0.667,4.143,2.062,5.981,4.182s3.385,4.803,4.637,8.047
			c1.242,3.221,1.875,5.985,1.893,8.291c0.02,2.306-0.363,4.154-1.146,5.545c-0.782,1.39-1.978,2.613-3.584,3.669
			c-1.007,0.633-2.933,1.498-5.774,2.595l-8.526,3.291c-5.945,2.294-9.653,3.881-11.124,4.762c-1.469,0.88-2.771,2.001-3.904,3.365
			l-2.578-6.68C644.361,351.753,645.749,350.729,647.452,349.854z M661.529,343.808c-1.843-1.956-3.992-5.126-6.447-9.512
			c-1.394-2.483-2.539-4.178-3.432-5.084c-0.896-0.907-1.912-1.48-3.052-1.72c-1.141-0.24-2.268-0.146-3.381,0.284
			c-1.705,0.658-2.877,1.852-3.517,3.581c-0.639,1.729-0.478,3.838,0.482,6.325c0.949,2.463,2.334,4.446,4.152,5.949
			c1.818,1.502,3.836,2.343,6.055,2.521c1.71,0.129,3.976-0.35,6.793-1.438L661.529,343.808z"/>
		<path fill="#92C83E" d="M686.003,353.077l7.731,31.947l-5.517,1.334l-3.063-12.66l-33.799,8.178l-1.603-6.626l33.797-8.178
			l-3.063-12.66L686.003,353.077z"/>
		<path fill="#92C83E" d="M663.062,425.934c-2.407-2.303-4.173-4.576-5.298-6.82c-1.126-2.245-1.827-4.705-2.104-7.38
			c-0.457-4.418,0.271-7.925,2.185-10.521c1.912-2.598,4.548-4.068,7.906-4.416c1.97-0.204,3.814,0.058,5.535,0.786
			s3.148,1.767,4.284,3.117s2.049,2.907,2.742,4.672c0.492,1.301,1.041,3.286,1.65,5.953c1.226,5.437,2.428,9.408,3.605,11.914
			c0.936-0.072,1.53-0.12,1.783-0.146c2.776-0.289,4.667-1.135,5.671-2.54c1.358-1.901,1.861-4.568,1.507-8.002
			c-0.332-3.207-1.14-5.516-2.421-6.927c-1.281-1.411-3.387-2.334-6.315-2.771l0.219-6.76c2.916,0.311,5.322,1.071,7.222,2.278
			c1.897,1.207,3.456,3.073,4.675,5.601s2.007,5.521,2.365,8.98c0.356,3.434,0.241,6.265-0.345,8.496
			c-0.586,2.229-1.439,3.912-2.56,5.049c-1.12,1.135-2.594,2.002-4.421,2.601c-1.138,0.347-3.22,0.676-6.25,0.99l-9.089,0.941
			c-6.337,0.655-10.33,1.215-11.979,1.68c-1.648,0.463-3.199,1.204-4.65,2.222l-0.736-7.12
			C659.583,426.957,661.189,426.332,663.062,425.934z M678.228,423.791c-1.267-2.371-2.509-5.993-3.728-10.869
			c-0.694-2.76-1.354-4.695-1.979-5.804c-0.625-1.11-1.456-1.93-2.493-2.46c-1.037-0.531-2.149-0.735-3.335-0.611
			c-1.818,0.188-3.263,1.033-4.332,2.535c-1.069,1.5-1.467,3.576-1.192,6.228c0.271,2.625,1.087,4.901,2.447,6.828
			c1.361,1.926,3.089,3.266,5.182,4.02c1.616,0.572,3.926,0.704,6.931,0.393L678.228,423.791z"/>
		<path fill="#92C83E" d="M643.6,442.7l55.87,2.704l-0.303,6.237l-5.248-0.254c1.982,1.571,3.441,3.306,4.379,5.206
			c0.938,1.9,1.343,4.169,1.215,6.807c-0.167,3.448-1.201,6.447-3.104,8.999c-1.901,2.55-4.502,4.419-7.799,5.608
			c-3.298,1.186-6.874,1.687-10.729,1.501c-4.133-0.2-7.817-1.122-11.055-2.764c-3.237-1.644-5.669-3.922-7.295-6.834
			c-1.624-2.913-2.362-5.928-2.211-9.046c0.11-2.282,0.691-4.307,1.742-6.072c1.052-1.767,2.341-3.197,3.868-4.292l-19.662-0.952
			L643.6,442.7z M678.745,450.615c-5.197-0.253-9.09,0.613-11.677,2.599c-2.586,1.984-3.952,4.472-4.096,7.465
			c-0.147,3.042,1.013,5.709,3.481,8.002c2.468,2.292,6.403,3.569,11.804,3.831c5.147,0.249,9.052-0.624,11.715-2.616
			c2.663-1.995,4.066-4.462,4.209-7.403c0.141-2.916-1.098-5.563-3.714-7.938C687.851,452.18,683.943,450.865,678.745,450.615z"/>
		<path fill="#92C83E" d="M696.563,490.227l-1.292,6.734l-7.521-1.444c-3.243-0.623-5.63-0.881-7.163-0.773
			c-1.533,0.106-2.983,0.791-4.352,2.055c-1.367,1.263-2.264,3.005-2.689,5.225c-0.489,2.544-0.448,5.965,0.123,10.265l17.996,3.454
			l-1.292,6.734l-39.732-7.626l1.292-6.734l16.013,3.073c-0.503-4.39-0.409-8.38,0.281-11.972c0.579-3.018,1.856-5.534,3.833-7.545
			c1.977-2.013,4.154-3.217,6.532-3.615c2.378-0.396,4.901-0.339,7.571,0.173L696.563,490.227z"/>
		<path fill="#92C83E" d="M644.058,551.423c-1.201-3.108-1.833-5.917-1.898-8.425c-0.064-2.511,0.347-5.035,1.233-7.574
			c1.464-4.194,3.614-7.06,6.449-8.596c2.836-1.539,5.848-1.75,9.034-0.636c1.869,0.652,3.428,1.673,4.676,3.064
			c1.248,1.389,2.1,2.937,2.554,4.642c0.453,1.704,0.618,3.502,0.495,5.396c-0.108,1.386-0.455,3.416-1.038,6.089
			c-1.202,5.441-1.802,9.546-1.8,12.316c0.878,0.333,1.436,0.542,1.676,0.626c2.636,0.919,4.706,0.958,6.211,0.113
			c2.039-1.144,3.628-3.344,4.767-6.603c1.063-3.044,1.313-5.476,0.754-7.297c-0.561-1.822-2.073-3.554-4.538-5.194l3.07-6.025
			c2.508,1.521,4.363,3.23,5.569,5.13c1.205,1.899,1.821,4.252,1.85,7.058s-0.531,5.85-1.677,9.133
			c-1.139,3.259-2.446,5.771-3.925,7.542c-1.477,1.769-2.964,2.929-4.462,3.482c-1.497,0.551-3.198,0.71-5.105,0.476
			c-1.178-0.169-3.204-0.756-6.079-1.759l-8.627-3.013c-6.015-2.101-9.866-3.292-11.557-3.571c-1.689-0.282-3.407-0.27-5.153,0.035
			l2.359-6.757C640.473,550.869,642.192,550.985,644.058,551.423z M658.694,555.929c-0.139-2.684,0.276-6.49,1.245-11.421
			c0.546-2.794,0.771-4.826,0.677-6.095c-0.095-1.27-0.498-2.365-1.212-3.286c-0.713-0.922-1.633-1.579-2.759-1.972
			c-1.725-0.603-3.391-0.453-4.997,0.454c-1.606,0.903-2.849,2.613-3.728,5.13c-0.87,2.492-1.1,4.898-0.687,7.22
			c0.413,2.321,1.406,4.269,2.981,5.841c1.22,1.205,3.254,2.304,6.105,3.3L658.694,555.929z"/>
		<path fill="#92C83E" d="M624.926,610.657l-4.188,5.354c-3.624-3-5.794-6.475-6.511-10.423c-0.716-3.95,0.052-7.826,2.301-11.628
			c2.818-4.764,6.643-7.671,11.468-8.724c4.827-1.053,10.147,0.14,15.96,3.58c3.759,2.223,6.679,4.792,8.761,7.706
			c2.081,2.914,3.074,6.06,2.977,9.44c-0.097,3.378-1.03,6.565-2.802,9.56c-2.237,3.78-5.023,6.306-8.357,7.579
			c-3.335,1.271-6.961,1.206-10.88-0.198l2.51-6.26c2.661,0.837,4.992,0.911,6.993,0.223c2.001-0.69,3.584-2.018,4.747-3.985
			c1.759-2.972,2.122-6.017,1.09-9.135c-1.032-3.119-3.853-6.042-8.463-8.77c-4.676-2.767-8.604-3.882-11.784-3.343
			c-3.18,0.537-5.623,2.248-7.329,5.132c-1.371,2.315-1.806,4.669-1.303,7.062C620.617,606.218,622.222,608.495,624.926,610.657z"/>
		<path fill="#92C83E" d="M599.271,654.247c-7.355-5.925-10.437-12.319-9.245-19.183c0.58-3.349,1.984-6.407,4.214-9.175
			c3.854-4.786,8.413-7.226,13.675-7.324c4.884-0.076,9.778,1.862,14.683,5.813c5.833,4.698,8.847,9.8,9.043,15.305
			c0.151,4.587-1.341,8.83-4.479,12.725c-3.743,4.646-8.215,7.06-13.413,7.241C608.804,659.838,603.978,658.037,599.271,654.247z
			 M601.906,647.273l14.884-18.477c-3.173-2.295-6.299-3.494-9.38-3.594c-3.514-0.092-6.44,1.316-8.781,4.224
			c-2.341,2.906-3.075,6.063-2.202,9.473C597.178,641.851,599.004,644.642,601.906,647.273z M606.416,650.661
			c2.821,1.718,5.488,2.514,8.003,2.388c3.414-0.152,6.188-1.553,8.323-4.202c2.149-2.67,2.935-5.689,2.355-9.056
			c-0.411-2.485-1.758-4.922-4.037-7.312L606.416,650.661z"/>
		<path fill="#92C83E" d="M604.694,676.857l-5.061,4.625l-20.812-22.774l6.781,35.595l-5.455,4.984l-27.286-29.86l5.061-4.625
			l20.683,22.634l-6.652-35.455l5.455-4.985L604.694,676.857z M597.426,704.241l-3.458,3.16c-1.86-2.601-2.646-5.185-2.361-7.75
			c0.287-2.567,1.621-4.938,4.001-7.113c2.399-2.193,4.886-3.321,7.458-3.384c2.573-0.064,5.079,0.957,7.52,3.063l-3.458,3.16
			c-1.429-1.036-2.818-1.512-4.17-1.428c-1.352,0.082-2.683,0.723-3.995,1.922c-1.519,1.387-2.388,2.741-2.609,4.062
			C596.132,701.251,596.489,702.688,597.426,704.241z"/>
		<path fill="#92C83E" d="M564.265,711.429l-26.535,17.578l-22.33-33.709l5.682-3.764l19.197,28.98l15.14-10.029l-11.122-16.792
			c-2.593-3.915-4.176-6.58-4.749-7.997s-0.597-2.969-0.072-4.657c0.526-1.689,1.869-3.248,4.027-4.678
			c1.333-0.883,2.923-1.815,4.77-2.794l3.154,4.762l-2.508,1.661c-1.185,0.784-1.95,1.466-2.297,2.046
			c-0.347,0.579-0.43,1.189-0.249,1.831c0.182,0.641,1.239,2.421,3.174,5.342L564.265,711.429z"/>
		<path fill="#92C83E" d="M482.719,733.756c-2.609-5.675-3.307-10.931-2.092-15.765c1.317-5.218,4.744-9.1,10.282-11.646
			c5.398-2.482,10.463-2.533,15.189-0.152c4.338,2.198,7.779,6.066,10.325,11.602c0.17,0.37,0.413,0.929,0.729,1.678l-27.407,12.604
			c1.862,3.503,4.179,5.958,6.952,7.368c3.14,1.602,6.44,1.608,9.901,0.017c4.659-2.144,6.733-6.144,6.22-12l6.804-2.164
			c1.493,8.9-2.075,15.333-10.703,19.302c-5.652,2.599-10.83,2.856-15.534,0.771C488.916,743.373,485.361,739.501,482.719,733.756z
			 M487.735,726.796l20.521-9.437c-1.698-2.964-3.549-4.923-5.552-5.874c-3.087-1.487-6.211-1.504-9.372-0.05
			c-3.021,1.39-5.024,3.54-6.005,6.451C486.396,720.663,486.532,723.632,487.735,726.796z"/>
		<path fill="#92C83E" d="M476.411,757.667l-6.646,1.682l-8.531-33.711l-15.139,3.831l8.531,33.711l-6.646,1.683l-8.532-33.711
			l-15.176,3.84l8.532,33.712l-6.609,1.672l-9.924-39.213l50.216-12.708L476.411,757.667z"/>
		<path fill="#92C83E" d="M371.624,754.755c-0.397-6.232,0.837-11.387,3.705-15.462c3.104-4.396,7.696-6.79,13.776-7.178
			c5.929-0.379,10.673,1.391,14.23,5.311c3.257,3.608,5.08,8.453,5.47,14.534c0.026,0.406,0.052,1.014,0.079,1.827l-30.101,1.924
			c0.481,3.938,1.762,7.062,3.842,9.371c2.356,2.623,5.434,3.812,9.235,3.569c5.118-0.328,8.488-3.316,10.112-8.966l7.125,0.423
			c-1.801,8.841-7.439,13.564-16.915,14.17c-6.208,0.397-11.133-1.222-14.774-4.856
			C373.956,765.953,372.028,761.064,371.624,754.755z M378.804,750.061l22.538-1.441c-0.521-3.375-1.545-5.867-3.073-7.474
			c-2.347-2.496-5.256-3.633-8.727-3.411c-3.319,0.212-5.959,1.5-7.92,3.865C379.756,743.855,378.816,746.676,378.804,750.061z"/>
		<path fill="#92C83E" d="M357.742,774.49l-10.599-1.127L340,740.061l-15.156,30.932l-9.804-1.043l4.273-40.204l6.813,0.725
			l-3.44,32.368l15.328-31.104l6.095,0.647l7.638,35.115l3.605-33.92l6.663,0.709L357.742,774.49z"/>
		<path fill="#92C83E" d="M304.543,741.278l-7.534,36.771l-7.288-1.715l9.659-36.271L304.543,741.278z M305.683,725.199
			c2.582,0.608,3.921,3.087,3.296,5.744c-0.643,2.733-3.006,4.261-5.588,3.653c-2.733-0.643-4.014-3.028-3.372-5.762
			c0.626-2.657,2.854-4.296,5.588-3.652L305.683,725.199z"/>
	</g>
	<g>
		<path fill="#ADD036" d="M494.415,184.931l28.362-48.083l9.577,5.649l-8.701,40.759c-0.821,3.791-1.454,6.614-1.901,8.472
			c1.577-1.427,3.945-3.493,7.104-6.199l31.246-26.664l8.56,5.049L540.3,211.997l-6.134-3.618l23.739-40.243l-37.71,32.001
			l-5.741-3.386l10.239-49.136l-24.146,40.933L494.415,184.931z"/>
		<path fill="#ADD036" d="M575.534,188.956l5.144,4.534l-20.404,23.146l34.664-10.576l5.543,4.887l-26.753,30.347l-5.144-4.534
			l20.278-23.003l-34.538,10.432l-5.543-4.887L575.534,188.956z"/>
		<path fill="#ADD036" d="M611.994,222.813l4.397,5.258l-12.91,10.799l12.192,14.575l12.91-10.799l4.398,5.258l-31.021,25.948
			l-4.397-5.258l13.758-11.508l-12.192-14.575l-13.758,11.508l-4.398-5.259L611.994,222.813z"/>
		<path fill="#ADD036" d="M650.539,273.543l15.82,28.816l-4.976,2.731l-6.27-11.419l-30.485,16.736l-3.28-5.977l30.484-16.736
			l-6.27-11.419L650.539,273.543z"/>
		<path fill="#ADD036" d="M647.452,349.854c-2.928-1.592-5.228-3.323-6.902-5.194c-1.675-1.871-2.997-4.063-3.966-6.573
			c-1.6-4.146-1.816-7.721-0.651-10.729c1.166-3.008,3.324-5.12,6.475-6.335c1.848-0.712,3.697-0.944,5.55-0.693
			s3.503,0.879,4.953,1.885c1.449,1.005,2.739,2.27,3.872,3.792c0.815,1.127,1.866,2.898,3.152,5.314
			c2.607,4.925,4.81,8.443,6.604,10.554c0.886-0.315,1.446-0.518,1.683-0.609c2.605-1.006,4.208-2.318,4.809-3.937
			c0.813-2.192,0.598-4.899-0.646-8.12c-1.16-3.008-2.545-5.025-4.15-6.051c-1.607-1.026-3.882-1.367-6.823-1.021l-1.561-6.582
			c2.896-0.464,5.418-0.362,7.567,0.305c2.148,0.667,4.143,2.062,5.981,4.182s3.385,4.803,4.637,8.047
			c1.242,3.221,1.875,5.985,1.893,8.291c0.02,2.306-0.363,4.154-1.146,5.545c-0.782,1.39-1.978,2.613-3.584,3.669
			c-1.007,0.633-2.933,1.498-5.774,2.595l-8.526,3.291c-5.945,2.294-9.653,3.881-11.124,4.762c-1.469,0.88-2.771,2.001-3.904,3.365
			l-2.578-6.68C644.361,351.753,645.749,350.729,647.452,349.854z M661.529,343.808c-1.843-1.956-3.992-5.126-6.447-9.512
			c-1.394-2.483-2.539-4.178-3.432-5.084c-0.896-0.907-1.912-1.48-3.052-1.72c-1.141-0.24-2.268-0.146-3.381,0.284
			c-1.705,0.658-2.877,1.852-3.517,3.581c-0.639,1.729-0.478,3.838,0.482,6.325c0.949,2.463,2.334,4.446,4.152,5.949
			c1.818,1.502,3.836,2.343,6.055,2.521c1.71,0.129,3.976-0.35,6.793-1.438L661.529,343.808z"/>
		<path fill="#ADD036" d="M686.003,353.077l7.731,31.947l-5.517,1.334l-3.063-12.66l-33.799,8.178l-1.603-6.626l33.797-8.178
			l-3.063-12.66L686.003,353.077z"/>
		<path fill="#ADD036" d="M663.062,425.934c-2.407-2.303-4.173-4.576-5.298-6.82c-1.126-2.245-1.827-4.705-2.104-7.38
			c-0.457-4.418,0.271-7.925,2.185-10.521c1.912-2.598,4.548-4.068,7.906-4.416c1.97-0.204,3.814,0.058,5.535,0.786
			s3.148,1.767,4.284,3.117s2.049,2.907,2.742,4.672c0.492,1.301,1.041,3.286,1.65,5.953c1.226,5.437,2.428,9.408,3.605,11.914
			c0.936-0.072,1.53-0.12,1.783-0.146c2.776-0.289,4.667-1.135,5.671-2.54c1.358-1.901,1.861-4.568,1.507-8.002
			c-0.332-3.207-1.14-5.516-2.421-6.927c-1.281-1.411-3.387-2.334-6.315-2.771l0.219-6.76c2.916,0.311,5.322,1.071,7.222,2.278
			c1.897,1.207,3.456,3.073,4.675,5.601s2.007,5.521,2.365,8.98c0.356,3.434,0.241,6.265-0.345,8.496
			c-0.586,2.229-1.439,3.912-2.56,5.049c-1.12,1.135-2.594,2.002-4.421,2.601c-1.138,0.347-3.22,0.676-6.25,0.99l-9.089,0.941
			c-6.337,0.655-10.33,1.215-11.979,1.68c-1.648,0.463-3.199,1.204-4.65,2.222l-0.736-7.12
			C659.583,426.957,661.189,426.332,663.062,425.934z M678.228,423.791c-1.267-2.371-2.509-5.993-3.728-10.869
			c-0.694-2.76-1.354-4.695-1.979-5.804c-0.625-1.11-1.456-1.93-2.493-2.46c-1.037-0.531-2.149-0.735-3.335-0.611
			c-1.818,0.188-3.263,1.033-4.332,2.535c-1.069,1.5-1.467,3.576-1.192,6.228c0.271,2.625,1.087,4.901,2.447,6.828
			c1.361,1.926,3.089,3.266,5.182,4.02c1.616,0.572,3.926,0.704,6.931,0.393L678.228,423.791z"/>
		<path fill="#ADD036" d="M643.6,442.7l55.87,2.704l-0.303,6.237l-5.248-0.254c1.982,1.571,3.441,3.306,4.379,5.206
			c0.938,1.9,1.343,4.169,1.215,6.807c-0.167,3.448-1.201,6.447-3.104,8.999c-1.901,2.55-4.502,4.419-7.799,5.608
			c-3.298,1.186-6.874,1.687-10.729,1.501c-4.133-0.2-7.817-1.122-11.055-2.764c-3.237-1.644-5.669-3.922-7.295-6.834
			c-1.624-2.913-2.362-5.928-2.211-9.046c0.11-2.282,0.691-4.307,1.742-6.072c1.052-1.767,2.341-3.197,3.868-4.292l-19.662-0.952
			L643.6,442.7z M678.745,450.615c-5.197-0.253-9.09,0.613-11.677,2.599c-2.586,1.984-3.952,4.472-4.096,7.465
			c-0.147,3.042,1.013,5.709,3.481,8.002c2.468,2.292,6.403,3.569,11.804,3.831c5.147,0.249,9.052-0.624,11.715-2.616
			c2.663-1.995,4.066-4.462,4.209-7.403c0.141-2.916-1.098-5.563-3.714-7.938C687.851,452.18,683.943,450.865,678.745,450.615z"/>
		<path fill="#ADD036" d="M696.563,490.227l-1.292,6.734l-7.521-1.444c-3.243-0.623-5.63-0.881-7.163-0.773
			c-1.533,0.106-2.983,0.791-4.352,2.055c-1.367,1.263-2.264,3.005-2.689,5.225c-0.489,2.544-0.448,5.965,0.123,10.265l17.996,3.454
			l-1.292,6.734l-39.732-7.626l1.292-6.734l16.013,3.073c-0.503-4.39-0.409-8.38,0.281-11.972c0.579-3.018,1.856-5.534,3.833-7.545
			c1.977-2.013,4.154-3.217,6.532-3.615c2.378-0.396,4.901-0.339,7.571,0.173L696.563,490.227z"/>
		<path fill="#ADD036" d="M644.058,551.423c-1.201-3.108-1.833-5.917-1.898-8.425c-0.064-2.511,0.347-5.035,1.233-7.574
			c1.464-4.194,3.614-7.06,6.449-8.596c2.836-1.539,5.848-1.75,9.034-0.636c1.869,0.652,3.428,1.673,4.676,3.064
			c1.248,1.389,2.1,2.937,2.554,4.642c0.453,1.704,0.618,3.502,0.495,5.396c-0.108,1.386-0.455,3.416-1.038,6.089
			c-1.202,5.441-1.802,9.546-1.8,12.316c0.878,0.333,1.436,0.542,1.676,0.626c2.636,0.919,4.706,0.958,6.211,0.113
			c2.039-1.144,3.628-3.344,4.767-6.603c1.063-3.044,1.313-5.476,0.754-7.297c-0.561-1.822-2.073-3.554-4.538-5.194l3.07-6.025
			c2.508,1.521,4.363,3.23,5.569,5.13c1.205,1.899,1.821,4.252,1.85,7.058s-0.531,5.85-1.677,9.133
			c-1.139,3.259-2.446,5.771-3.925,7.542c-1.477,1.769-2.964,2.929-4.462,3.482c-1.497,0.551-3.198,0.71-5.105,0.476
			c-1.178-0.169-3.204-0.756-6.079-1.759l-8.627-3.013c-6.015-2.101-9.866-3.292-11.557-3.571c-1.689-0.282-3.407-0.27-5.153,0.035
			l2.359-6.757C640.473,550.869,642.192,550.985,644.058,551.423z M658.694,555.929c-0.139-2.684,0.276-6.49,1.245-11.421
			c0.546-2.794,0.771-4.826,0.677-6.095c-0.095-1.27-0.498-2.365-1.212-3.286c-0.713-0.922-1.633-1.579-2.759-1.972
			c-1.725-0.603-3.391-0.453-4.997,0.454c-1.606,0.903-2.849,2.613-3.728,5.13c-0.87,2.492-1.1,4.898-0.687,7.22
			c0.413,2.321,1.406,4.269,2.981,5.841c1.22,1.205,3.254,2.304,6.105,3.3L658.694,555.929z"/>
		<path fill="#ADD036" d="M624.926,610.657l-4.188,5.354c-3.624-3-5.794-6.475-6.511-10.423c-0.716-3.95,0.052-7.826,2.301-11.628
			c2.818-4.764,6.643-7.671,11.468-8.724c4.827-1.053,10.147,0.14,15.96,3.58c3.759,2.223,6.679,4.792,8.761,7.706
			c2.081,2.914,3.074,6.06,2.977,9.44c-0.097,3.378-1.03,6.565-2.802,9.56c-2.237,3.78-5.023,6.306-8.357,7.579
			c-3.335,1.271-6.961,1.206-10.88-0.198l2.51-6.26c2.661,0.837,4.992,0.911,6.993,0.223c2.001-0.69,3.584-2.018,4.747-3.985
			c1.759-2.972,2.122-6.017,1.09-9.135c-1.032-3.119-3.853-6.042-8.463-8.77c-4.676-2.767-8.604-3.882-11.784-3.343
			c-3.18,0.537-5.623,2.248-7.329,5.132c-1.371,2.315-1.806,4.669-1.303,7.062C620.617,606.218,622.222,608.495,624.926,610.657z"/>
		<path fill="#ADD036" d="M599.271,654.247c-7.355-5.925-10.437-12.319-9.245-19.183c0.58-3.349,1.984-6.407,4.214-9.175
			c3.854-4.786,8.413-7.226,13.675-7.324c4.884-0.076,9.778,1.862,14.683,5.813c5.833,4.698,8.847,9.8,9.043,15.305
			c0.151,4.587-1.341,8.83-4.479,12.725c-3.743,4.646-8.215,7.06-13.413,7.241C608.804,659.838,603.978,658.037,599.271,654.247z
			 M601.906,647.273l14.884-18.477c-3.173-2.295-6.299-3.494-9.38-3.594c-3.514-0.092-6.44,1.316-8.781,4.224
			c-2.341,2.906-3.075,6.063-2.202,9.473C597.178,641.851,599.004,644.642,601.906,647.273z M606.416,650.661
			c2.821,1.718,5.488,2.514,8.003,2.388c3.414-0.152,6.188-1.553,8.323-4.202c2.149-2.67,2.935-5.689,2.355-9.056
			c-0.411-2.485-1.758-4.922-4.037-7.312L606.416,650.661z"/>
		<path fill="#ADD036" d="M604.694,676.857l-5.061,4.625l-20.812-22.774l6.781,35.595l-5.455,4.984l-27.286-29.86l5.061-4.625
			l20.683,22.634l-6.652-35.455l5.455-4.985L604.694,676.857z M597.426,704.241l-3.458,3.16c-1.86-2.601-2.646-5.185-2.361-7.75
			c0.287-2.567,1.621-4.938,4.001-7.113c2.399-2.193,4.886-3.321,7.458-3.384c2.573-0.064,5.079,0.957,7.52,3.063l-3.458,3.16
			c-1.429-1.036-2.818-1.512-4.17-1.428c-1.352,0.082-2.683,0.723-3.995,1.922c-1.519,1.387-2.388,2.741-2.609,4.062
			C596.132,701.251,596.489,702.688,597.426,704.241z"/>
		<path fill="#ADD036" d="M564.265,711.429l-26.535,17.578l-22.33-33.709l5.682-3.764l19.197,28.98l15.14-10.029l-11.122-16.792
			c-2.593-3.915-4.176-6.58-4.749-7.997s-0.597-2.969-0.072-4.657c0.526-1.689,1.869-3.248,4.027-4.678
			c1.333-0.883,2.923-1.815,4.77-2.794l3.154,4.762l-2.508,1.661c-1.185,0.784-1.95,1.466-2.297,2.046
			c-0.347,0.579-0.43,1.189-0.249,1.831c0.182,0.641,1.239,2.421,3.174,5.342L564.265,711.429z"/>
		<path fill="#ADD036" d="M482.719,733.756c-2.609-5.675-3.307-10.931-2.092-15.765c1.317-5.218,4.744-9.1,10.282-11.646
			c5.398-2.482,10.463-2.533,15.189-0.152c4.338,2.198,7.779,6.066,10.325,11.602c0.17,0.37,0.413,0.929,0.729,1.678l-27.407,12.604
			c1.862,3.503,4.179,5.958,6.952,7.368c3.14,1.602,6.44,1.608,9.901,0.017c4.659-2.144,6.733-6.144,6.22-12l6.804-2.164
			c1.493,8.9-2.075,15.333-10.703,19.302c-5.652,2.599-10.83,2.856-15.534,0.771C488.916,743.373,485.361,739.501,482.719,733.756z
			 M487.735,726.796l20.521-9.437c-1.698-2.964-3.549-4.923-5.552-5.874c-3.087-1.487-6.211-1.504-9.372-0.05
			c-3.021,1.39-5.024,3.54-6.005,6.451C486.396,720.663,486.532,723.632,487.735,726.796z"/>
		<path fill="#ADD036" d="M476.411,757.667l-6.646,1.682l-8.531-33.711l-15.139,3.831l8.531,33.711l-6.646,1.683l-8.532-33.711
			l-15.176,3.84l8.532,33.712l-6.609,1.672l-9.924-39.213l50.216-12.708L476.411,757.667z"/>
		<path fill="#ADD036" d="M371.624,754.755c-0.397-6.232,0.837-11.387,3.705-15.462c3.104-4.396,7.696-6.79,13.776-7.178
			c5.929-0.379,10.673,1.391,14.23,5.311c3.257,3.608,5.08,8.453,5.47,14.534c0.026,0.406,0.052,1.014,0.079,1.827l-30.101,1.924
			c0.481,3.938,1.762,7.062,3.842,9.371c2.356,2.623,5.434,3.812,9.235,3.569c5.118-0.328,8.488-3.316,10.112-8.966l7.125,0.423
			c-1.801,8.841-7.439,13.564-16.915,14.17c-6.208,0.397-11.133-1.222-14.774-4.856
			C373.956,765.953,372.028,761.064,371.624,754.755z M378.804,750.061l22.538-1.441c-0.521-3.375-1.545-5.867-3.073-7.474
			c-2.347-2.496-5.256-3.633-8.727-3.411c-3.319,0.212-5.959,1.5-7.92,3.865C379.756,743.855,378.816,746.676,378.804,750.061z"/>
		<path fill="#ADD036" d="M357.742,774.49l-10.599-1.127L340,740.061l-15.156,30.932l-9.804-1.043l4.273-40.204l6.813,0.725
			l-3.44,32.368l15.328-31.104l6.095,0.647l7.638,35.115l3.605-33.92l6.663,0.709L357.742,774.49z"/>
		<path fill="#ADD036" d="M304.543,741.278l-7.534,36.771l-7.288-1.715l9.659-36.271L304.543,741.278z M305.683,725.199
			c2.582,0.608,3.921,3.087,3.296,5.744c-0.643,2.733-3.006,4.261-5.588,3.653c-2.733-0.643-4.014-3.028-3.372-5.762
			c0.626-2.657,2.854-4.296,5.588-3.652L305.683,725.199z"/>
	</g>
</g>
</svg>
